<svg width="25" height="25" viewBox="0 0 25 25" fill="none" xmlns="http://www.w3.org/2000/svg">
<path d="M6.95386 19.9478C6.95386 21.0478 7.85386 21.9478 8.95386 21.9478H16.9539C18.0539 21.9478 18.9539 21.0478 18.9539 19.9478V7.94775H6.95386V19.9478ZM10.1239 13.5378C9.73386 13.1478 9.73386 12.5178 10.1239 12.1278C10.5139 11.7378 11.1439 11.7378 11.5339 12.1278L12.9539 13.5378L14.3639 12.1278C14.7539 11.7378 15.3839 11.7378 15.7739 12.1278C16.1639 12.5178 16.1639 13.1478 15.7739 13.5378L14.3639 14.9478L15.7739 16.3578C16.1639 16.7478 16.1639 17.3778 15.7739 17.7678C15.3839 18.1578 14.7539 18.1578 14.3639 17.7678L12.9539 16.3578L11.5439 17.7678C11.1539 18.1578 10.5239 18.1578 10.1339 17.7678C9.74386 17.3778 9.74386 16.7478 10.1339 16.3578L11.5439 14.9478L10.1239 13.5378ZM18.9539 4.94775H16.4539L15.7439 4.23775C15.5639 4.05775 15.3039 3.94775 15.0439 3.94775H10.8639C10.6039 3.94775 10.3439 4.05775 10.1639 4.23775L9.45386 4.94775H6.95386C6.40386 4.94775 5.95386 5.39775 5.95386 5.94775C5.95386 6.49775 6.40386 6.94775 6.95386 6.94775H18.9539C19.5039 6.94775 19.9539 6.49775 19.9539 5.94775C19.9539 5.39775 19.5039 4.94775 18.9539 4.94775Z" fill="#CC7C7C"/>
</svg>
