<svg width="25" height="25" viewBox="0 0 25 25" fill="none" xmlns="http://www.w3.org/2000/svg">
<path d="M20.9539 23.949H4.95386C3.85386 23.949 2.95386 23.049 2.95386 21.949C2.95386 20.849 3.85386 19.949 4.95386 19.949H20.9539C22.0539 19.949 22.9539 20.849 22.9539 21.949C22.9539 23.049 22.0539 23.949 20.9539 23.949ZM14.0139 5.13903L17.7639 8.88903L8.99386 17.659C8.81386 17.849 8.55386 17.949 8.29386 17.949H5.95386C5.40386 17.949 4.95386 17.499 4.95386 16.949V14.609C4.95386 14.339 5.06386 14.089 5.24386 13.899L14.0139 5.13903ZM18.8339 7.81903L15.0839 4.06903L16.9139 2.23903C17.3039 1.84903 17.9339 1.84903 18.3239 2.23903L20.6639 4.57903C21.0539 4.96903 21.0539 5.59903 20.6639 5.98903L18.8339 7.81903Z" fill="#A6A6A6"/>
</svg>
