<svg width="20" height="20" viewBox="0 0 20 20" fill="none" xmlns="http://www.w3.org/2000/svg">
<path d="M18 11.3333H11.3333V18C11.3333 18.7333 10.7333 19.3333 9.99996 19.3333C9.26663 19.3333 8.66663 18.7333 8.66663 18V11.3333H1.99996C1.26663 11.3333 0.666626 10.7333 0.666626 10C0.666626 9.26667 1.26663 8.66667 1.99996 8.66667H8.66663V2.00001C8.66663 1.26667 9.26663 0.666672 9.99996 0.666672C10.7333 0.666672 11.3333 1.26667 11.3333 2.00001V8.66667H18C18.7333 8.66667 19.3333 9.26667 19.3333 10C19.3333 10.7333 18.7333 11.3333 18 11.3333Z" fill="#F9F9F9"/>
</svg>
